<?xml version="1.0" encoding="UTF-8"?> <svg xmlns="http://www.w3.org/2000/svg" viewBox="0 0 100 100" fill-rule="evenodd"><path d="M81.182 20.794a1.75 1.75 0 0 0-.077-.071l-5.798-5.037v-4.352a1.5 1.5 0 1 0-3 0V21.69a1.5 1.5 0 1 0 3 0v-2.031l3.79 3.293a12.784 12.784 0 0 1 1.885 15.625l-7.783 12.815-.355-.57a1.5 1.5 0 0 0-1.273-.707h-.012a1.499 1.499 0 0 0-1.273.727c-1.082 1.797-3.614 3.374-5.42 3.374-1.898 0-4.767-1.671-5.791-3.373a1.5 1.5 0 0 0-1.274-.727c-.51-.021-1.009.264-1.285.708l-.253.408-7.517-12.645c-3.04-5.053-2.248-11.497 1.869-15.617l3.569-3.225v2.271a1.5 1.5 0 1 0 3 0V11.657a1.5 1.5 0 1 0-3 0v4.042l-5.636 5.095a15.789 15.789 0 0 0-2.377 19.331L54.479 54.1l-.752 1.21a1.503 1.503 0 0 0-.011 1.566c1.905 3.162 5.927 5.719 9.651 6.287v7.038c0 .067.005.133.014.198-.124 11.475-8.765 20.768-19.368 20.768-10.68 0-19.368-9.429-19.368-21.019 0-.066-.004-.132-.013-.196V40.524c3.207-.786 5.597-3.678 5.597-7.125 0-4.049-3.292-7.343-7.339-7.343-4.051 0-7.347 3.294-7.347 7.343 0 3.619 2.636 6.628 6.089 7.227v29.791c0 .078.006.155.018.229.248 13.015 10.185 23.52 22.363 23.52 12.334 0 22.369-10.775 22.369-24.019 0-.071-.005-.14-.015-.208v-6.778c3.59-.56 7.318-3.031 9.282-6.286a1.5 1.5 0 0 0-.011-1.568l-.662-1.063 8.573-14.117a15.78 15.78 0 0 0-2.367-19.333zm-62.64 12.605a4.35 4.35 0 0 1 4.347-4.343c2.393 0 4.339 1.948 4.339 4.343s-1.946 4.343-4.339 4.343a4.35 4.35 0 0 1-4.347-4.343zm46.327 26.884h-.005c-2.752-.001-6.241-1.869-8.072-4.221l1.18-1.897c1.882 1.768 4.641 3.05 6.895 3.05 2.366 0 4.84-1.356 6.541-3.026l1.17 1.88c-1.825 2.414-5.048 4.212-7.709 4.214z" fill="#3b5d32"></path></svg> 