<?xml version="1.0" encoding="UTF-8"?> <svg xmlns="http://www.w3.org/2000/svg" viewBox="0 0 100 100" fill-rule="evenodd"><path d="M76.043 19.779c-5.812 0-12.543 2.955-14.206 3.972-2.961 1.803-6.392 4.376-7.398 7.053H40.774v-5.275a1.5 1.5 0 0 0-1.5-1.5h-1.499a6.114 6.114 0 0 0 .882-3.16c0-3.395-2.764-6.156-6.162-6.156a6.164 6.164 0 0 0-6.158 6.156c0 1.156.326 2.234.882 3.16h-1.495a1.5 1.5 0 0 0-1.5 1.5v13.375C12.46 43.617 5.177 53.537 5.177 64.905c0 15.064 12.255 27.32 27.318 27.32 15.067 0 27.325-12.256 27.325-27.32 0-10.763-6.929-20.169-19.047-25.91v-5.191h13.632c.822 2.387 3.565 4.943 8.196 7.622 2.444 1.414 8.23 3.405 13.441 3.405 10.937 0 19.503-5.502 19.503-12.526.002-7.024-8.565-12.526-19.502-12.526zM37.774 38.778H27.225V27.029h10.549v11.749zm-8.436-17.909a3.16 3.16 0 0 1 6.32 0 3.165 3.165 0 0 1-3.162 3.16 3.162 3.162 0 0 1-3.158-3.16zm27.483 44.036c0 13.41-10.912 24.32-24.325 24.32-13.409 0-24.318-10.91-24.318-24.32 0-10.108 6.565-18.954 17.158-23.204.144.046.293.077.452.077h13.416c.114 0 .223-.015.33-.039 10.992 5.227 17.287 13.63 17.287 23.166zM76.043 41.83c-4.77 0-10.13-1.955-11.939-3.001-5.136-2.971-6.965-5.318-6.965-6.525 0-1.049 1.958-3.372 6.262-5.992 1.644-1.006 7.819-3.533 12.643-3.533 8.946 0 16.503 4.362 16.503 9.525 0 5.164-7.558 9.526-16.504 9.526z" fill="#3b5d32"></path></svg> 